<svg width="314" height="314" viewBox="0 0 314 314" fill="none" xmlns="http://www.w3.org/2000/svg">
  <path d="M156.513 313.5C242.945 313.5 313.013 243.433 313.013 157C313.013 70.5674 242.945 0.5 156.513 0.5C70.0801 0.5 0.0126953 70.5674 0.0126953 157C0.0126953 243.433 70.0801 313.5 156.513 313.5Z" fill="#FF570A"/>
  <path d="M262.786 131.077C262.786 131.077 240.981 103.203 213.571 101.609C195.883 100.565 191.598 102.928 190.83 104.688C189.732 95.5622 181.932 53.2825 128.046 44.3223C134.925 93.7713 163.334 80.8866 180.065 114.969C180.065 114.969 151.832 76.5941 105.416 90.7232C105.416 90.7232 122.334 126.24 172.374 133.497C172.374 133.497 176.384 147.241 177.593 149.661C177.593 149.661 100.527 109.471 77.1269 186.606C59.7121 182.661 53.8708 201.566 73.8868 214.48C73.8868 214.48 77.2926 200.955 85.5858 196.942C85.5858 196.942 67.7888 216.79 88.7167 240.561H163.831C165.646 237.554 173.679 221.736 153.812 209.763C167.836 209.562 179.251 236.015 191.532 240.743H209.395C209.999 239.274 211.263 234.876 208.295 230.919C203.721 225.672 193.706 226.382 193.795 216.679C197.254 171.54 264.938 185.402 262.786 131.077Z" fill="#FEFEFE"/>
</svg>
